<svg width="512" height="512" viewBox="0 0 512 512" fill="none" xmlns="http://www.w3.org/2000/svg">
    <g clip-path="url(#clip0)">
        <circle cx="256" cy="256" r="256" fill="url(#paint0_linear)" />
        <circle cx="256" cy="256" r="218" stroke="white" stroke-width="12" />
        <path
            d="M333.6 334.4C333.6 330.4 330.4 330.4 327.6 330.4C322.8 330.4 322.4 330.8 320 339.6C314.8 360 307.2 387.2 289.6 387.2C278.8 387.2 278 378 278 370C278 360.8 280.8 349.6 281.2 347.6C283.2 339.2 283.2 338.8 283.2 333.6C283.2 306.4 255.2 295.6 230 292C239.2 286.4 247.6 278 258.4 265.6C279.2 242 294.8 223.6 314.8 223.6C322.4 223.6 325.6 228.4 325.6 228.4C308.8 231.2 306.8 245.2 306.8 248.4C306.8 253.6 310.4 261.2 320.8 261.2C329.6 261.2 340.8 254 340.8 238.8C340.8 228.4 333.6 214.8 315.6 214.8C294.4 214.8 277.2 231.6 263.6 247.6C240.8 274 234.4 280.4 220.4 287.2L261.2 124C261.6 122.8 262.4 118.8 262.4 118.8C262.4 115.2 260 114 256.8 114C255.6 114 251.6 114.4 250.4 114.8L210.8 118C206 118.4 201.6 118.8 201.6 126.4C201.6 130.8 205.6 130.8 211.2 130.8C230.4 130.8 231.2 133.6 231.2 137.6C231.2 138.8 230 144.4 230 144.4L170.8 380.4C170.4 381.2 170 385.6 170 385.6C170 390 173.6 396 181.2 396C193.2 396 196 384.8 196.8 381.2L217.2 300C232 302 257.6 310.4 257.6 333.6C257.6 336.4 257.6 338 256.4 343.6C254.8 350.4 254.8 353.2 254.8 357.2C254.8 386 273.6 396 288.4 396C306 396 314.8 382.8 319.2 375.2C328 360 333.6 335.6 333.6 334.4Z"
            fill="white" />
    </g>
    <defs>
        <linearGradient id="paint0_linear" x1="104" y1="44" x2="432" y2="439" gradientUnits="userSpaceOnUse">
            <stop stop-color="#D841F5" />
            <stop offset="1" stop-color="#0F0CB4" />
        </linearGradient>
        <clipPath id="clip0">
            <rect width="512" height="512" fill="white" />
        </clipPath>
    </defs>
</svg>