<?xml version="1.0" encoding="utf-8"?>
<!-- Generator: Adobe Illustrator 26.0.1, SVG Export Plug-In . SVG Version: 6.00 Build 0)  -->
<svg version="1.1" id="Layer_1" xmlns="http://www.w3.org/2000/svg" xmlns:xlink="http://www.w3.org/1999/xlink" x="0px" y="0px"
	 viewBox="0 0 72 72" style="enable-background:new 0 0 72 72;" xml:space="preserve">
<style type="text/css">
	.st0{fill:#F2F2F2;}
	.st1{fill:url(#SVGID_1_);}
	.st2{fill:url(#SVGID_00000113334227307370696530000005747155224699738008_);}
</style>
<g>
	<path class="st0" d="M36,0C16.118,0,0,16.118,0,36s16.118,36,36,36s36-16.118,36-36S55.882,0,36,0L36,0z"/>
</g>
<g>
	<linearGradient id="SVGID_1_" gradientUnits="userSpaceOnUse" x1="35.5377" y1="15.3176" x2="35.5377" y2="56.6483">
		<stop  offset="0.0264" style="stop-color:#D669FF"/>
		<stop  offset="0.9894" style="stop-color:#7767F1"/>
	</linearGradient>
	<path class="st1" d="M24.246,33.117c5.058,2.407,11.199,1.828,11.199,1.828s-2.438-0.853-4.997-4.571
		c-1.539-2.235-0.765-3.99,0.098-5.035c0.291-0.407,0.681-0.764,1.161-1.061c0.012-0.008,0.021-0.014,0.021-0.014l0.001,0
		c0.982-0.599,2.341-0.945,4.016-0.945c2.925,0,4.957,0.892,6.429,3.449c1.131,1.964,2.566,2.732,4.774,2.732
		c2.539-0.028,4.249-1.6,4.249-3.946c0-0.828-0.138-1.49-0.414-2.18c-1.932-5.05-7.505-7.974-15.121-7.974
		c-8.805,0-15.287,4.564-15.778,11.73C19.825,28.243,20.209,31.196,24.246,33.117z"/>
	
		<linearGradient id="SVGID_00000065058875364097162180000010441209681869268134_" gradientUnits="userSpaceOnUse" x1="36" y1="15.3209" x2="36" y2="56.6664">
		<stop  offset="0.0263" style="stop-color:#D669FF"/>
		<stop  offset="0.9888" style="stop-color:#7767F1"/>
	</linearGradient>
	<path style="fill:url(#SVGID_00000065058875364097162180000010441209681869268134_);" d="M46.084,38.343
		c-5.353-1.778-9.554-1.108-9.554-1.108s1.527,0.849,3.866,3.165c1.072,1.061,1.58,2.092,1.818,2.899
		c0.141,0.358,0.208,0.751,0.208,1.186c0,0.098-0.006,0.194-0.014,0.289c-0.005,0.077-0.011,0.119-0.011,0.119l-0.001-0.001
		c-0.271,2.216-2.765,3.787-6.486,3.787c-3.201,0-5.326-0.896-7.229-3.532c-1.389-1.923-2.621-2.677-4.581-2.677
		c-2.566,0-4.387,1.711-4.387,4.249c0,0.828,0.166,1.683,0.524,2.511c1.656,4.111,6.871,7.367,15.507,7.367
		c9.103,0,15.021-3.828,16.424-10.072C52.73,43.428,51.404,40.109,46.084,38.343z"/>
</g>
</svg>
